<svg width="16" height="17" viewBox="0 0 16 17" fill="none" xmlns="http://www.w3.org/2000/svg">
<g clip-path="url(#clip0_37_1015)">
<path d="M15.142 3.218C14.9545 2.99296 14.7197 2.81197 14.4544 2.68788C14.189 2.56379 13.8996 2.49964 13.6067 2.5H2.828L2.8 2.266C2.7427 1.77961 2.50892 1.33115 2.14299 1.00565C1.77706 0.680149 1.30442 0.500228 0.814667 0.5L0.666667 0.5C0.489856 0.5 0.320286 0.570238 0.195262 0.695262C0.0702379 0.820286 0 0.989856 0 1.16667C0 1.34348 0.0702379 1.51305 0.195262 1.63807C0.320286 1.7631 0.489856 1.83333 0.666667 1.83333H0.814667C0.977956 1.83335 1.13556 1.8933 1.25758 2.00181C1.3796 2.11032 1.45756 2.25983 1.47667 2.422L2.394 10.222C2.48923 11.0332 2.87899 11.7812 3.48927 12.324C4.09956 12.8668 4.8879 13.1667 5.70467 13.1667H12.6667C12.8435 13.1667 13.013 13.0964 13.1381 12.9714C13.2631 12.8464 13.3333 12.6768 13.3333 12.5C13.3333 12.3232 13.2631 12.1536 13.1381 12.0286C13.013 11.9036 12.8435 11.8333 12.6667 11.8333H5.70467C5.29204 11.8322 4.88987 11.7034 4.55329 11.4647C4.21671 11.226 3.96221 10.889 3.82467 10.5H11.7713C12.5529 10.5 13.3096 10.2255 13.9092 9.72429C14.5089 9.2231 14.9134 8.52713 15.052 7.758L15.5753 4.85533C15.6276 4.56734 15.6158 4.27138 15.5409 3.98843C15.4661 3.70547 15.3299 3.44245 15.142 3.218ZM14.2667 4.61867L13.7427 7.52133C13.6594 7.98333 13.4163 8.40133 13.0559 8.70213C12.6955 9.00294 12.2408 9.16738 11.7713 9.16667H3.61267L2.98533 3.83333H13.6067C13.7046 3.83275 13.8015 3.85375 13.8904 3.89484C13.9793 3.93593 14.058 3.9961 14.121 4.07107C14.184 4.14605 14.2297 4.23398 14.2549 4.32862C14.2801 4.42327 14.2841 4.5223 14.2667 4.61867Z" fill="#181818"/>
<path d="M4.66683 16.5004C5.40321 16.5004 6.00016 15.9034 6.00016 15.1671C6.00016 14.4307 5.40321 13.8337 4.66683 13.8337C3.93045 13.8337 3.3335 14.4307 3.3335 15.1671C3.3335 15.9034 3.93045 16.5004 4.66683 16.5004Z" fill="#181818"/>
<path d="M11.3333 16.5004C12.0697 16.5004 12.6667 15.9034 12.6667 15.1671C12.6667 14.4307 12.0697 13.8337 11.3333 13.8337C10.597 13.8337 10 14.4307 10 15.1671C10 15.9034 10.597 16.5004 11.3333 16.5004Z" fill="#181818"/>
</g>
<defs>
<clipPath id="clip0_37_1015">
<rect width="16" height="16" fill="white" transform="translate(0 0.5)"/>
</clipPath>
</defs>
</svg>
